<?xml version="1.0" standalone="no"?>
<!DOCTYPE svg PUBLIC "-//W3C//DTD SVG 20010904//EN"
 "http://www.w3.org/TR/2001/REC-SVG-20010904/DTD/svg10.dtd">
<svg version="1.0" xmlns="http://www.w3.org/2000/svg"
 width="1500.000000pt" height="1500.000000pt" viewBox="0 0 1500.000000 1500.000000"
 preserveAspectRatio="xMidYMid meet">
<metadata>
Created by potrace 1.14, written by Peter Selinger 2001-2017
</metadata>
<g transform="translate(0.000000,1500.000000) scale(0.100000,-0.100000)"
fill="#000000" stroke="none">
<path d="M6955 12723 c-230 -21 -520 -82 -750 -157 -660 -218 -1207 -607
-1641 -1166 -134 -172 -324 -465 -324 -499 0 -8 -11 -28 -24 -45 -103 -136
-244 -426 -336 -691 -171 -496 -279 -1053 -311 -1605 -43 -741 108 -1637 382
-2274 22 -49 39 -90 39 -91 0 -1 -100 -1 -222 -1 -160 1 -229 -2 -245 -11 -17
-10 -28 -10 -55 0 -24 9 -143 12 -444 12 l-411 0 -32 -28 c-18 -15 -39 -27
-46 -27 -27 0 -105 -63 -105 -84 0 -27 -9 -40 -37 -55 -35 -18 -30 -61 10 -88
17 -12 62 -51 98 -87 57 -55 73 -65 120 -75 110 -21 183 -23 290 -7 59 9 142
16 186 16 44 0 82 3 86 6 8 8 37 10 412 23 334 12 538 26 563 40 12 7 33 -18
102 -123 100 -152 259 -353 353 -445 l65 -65 -67 -80 c-237 -284 -457 -650
-688 -1141 -306 -650 -583 -1473 -688 -2045 -14 -74 -30 -160 -36 -190 -27
-138 -13 -188 64 -240 53 -35 81 -48 247 -116 52 -21 97 -39 99 -41 2 -1 -6
-76 -17 -165 -34 -264 -52 -455 -61 -660 -6 -130 -14 -208 -25 -238 -16 -45
-23 -231 -10 -264 5 -13 22 -16 79 -16 l72 0 6 222 c6 256 38 654 71 893 2 17
7 60 11 98 4 37 10 69 14 72 7 4 507 -157 517 -167 3 -3 2 -91 -2 -194 l-7
-189 -89 -58 c-68 -43 -88 -62 -84 -75 5 -15 15 -380 16 -539 l0 -63 4575 0
c2516 0 4575 1 4575 3 0 1 -5 18 -10 37 -10 31 -28 153 -60 400 -16 116 -13
113 -76 108 -30 -3 -54 -1 -54 2 0 6 -56 20 -95 24 -10 1 -20 276 -10 276 3 0
22 -7 42 -15 23 -10 70 -16 125 -16 76 -1 96 2 142 25 30 15 69 43 87 63 40
46 81 134 90 193 4 25 28 94 53 154 109 257 177 598 205 1026 15 222 5 698
-21 994 -3 26 3 33 37 50 34 17 245 217 245 232 0 3 13 22 29 42 38 48 41 76
47 379 6 288 -5 418 -61 717 -96 513 -315 1126 -550 1541 -19 33 -35 67 -35
75 -1 45 -312 542 -455 725 -174 224 -384 447 -549 583 -239 197 -551 381
-766 451 -80 26 -235 60 -272 61 -23 0 -28 5 -28 24 0 51 -201 211 -302 240
-15 4 -16 10 -8 32 25 66 61 279 67 399 12 263 -45 593 -133 768 -114 224
-314 394 -521 443 -66 16 -216 15 -284 -1 l-26 -7 -6 94 c-3 51 -18 156 -32
233 -120 650 -392 1175 -822 1586 -376 360 -890 628 -1403 733 -206 42 -371
56 -620 54 -124 -1 -243 -3 -265 -5z m593 -199 c628 -74 1196 -358 1640 -818
408 -424 661 -917 795 -1549 l34 -158 -70 -36 c-91 -48 -222 -172 -292 -278
-119 -178 -194 -401 -215 -640 -16 -186 15 -375 55 -334 8 8 26 84 40 169 70
404 174 632 370 818 232 220 503 239 710 50 132 -121 222 -304 271 -554 21
-107 24 -392 5 -524 -30 -211 -100 -425 -187 -573 -43 -75 -185 -237 -207
-237 -12 0 -1 94 14 122 13 25 -6 50 -35 46 -31 -4 -64 -80 -72 -165 l-7 -72
-46 -15 c-98 -30 -94 -31 -87 26 4 28 12 60 17 70 7 14 7 24 -2 34 -32 38 -82
-13 -97 -98 -8 -41 -9 -43 -43 -42 -60 2 -145 48 -220 120 -38 37 -69 75 -69
85 0 23 -37 48 -81 55 -50 8 -160 -21 -179 -46 -12 -15 -32 -24 -71 -29 l-54
-6 -74 97 c-67 90 -101 118 -101 85 0 -8 27 -52 60 -100 58 -82 60 -87 38 -91
-129 -26 -143 -31 -143 -51 0 -19 7 -20 109 -22 l110 -1 43 -61 44 -60 -22
-76 c-24 -80 -20 -77 -100 -90 -34 -5 -38 -2 -133 100 -53 58 -102 105 -107
105 -21 0 -6 -37 52 -126 34 -52 60 -96 58 -98 -2 -2 -33 -8 -69 -15 -101 -19
-130 -30 -123 -48 5 -12 17 -14 57 -9 28 3 79 9 113 12 l62 6 46 -71 46 -72
-16 -52 c-10 -29 -22 -57 -29 -63 -6 -7 -42 -16 -80 -21 l-68 -10 -76 89 c-73
85 -102 105 -102 73 0 -9 25 -51 55 -95 l56 -78 -58 -12 c-74 -15 -123 -36
-123 -51 0 -9 28 -11 113 -6 l112 6 43 -63 c38 -56 41 -66 32 -92 -10 -27 -17
-31 -78 -42 -37 -6 -81 -14 -98 -18 -30 -6 -34 -2 -94 75 -58 75 -90 99 -90
69 0 -7 20 -47 45 -88 l45 -75 -78 -25 c-117 -38 -92 -55 53 -36 l60 7 46 -78
46 -79 -24 -47 c-17 -34 -31 -48 -51 -52 -15 -4 -43 -10 -63 -14 -34 -8 -36
-7 -93 61 -37 44 -64 68 -74 66 -23 -5 -17 -32 19 -91 32 -52 36 -67 16 -67
-33 0 -117 -32 -117 -44 0 -23 25 -25 97 -10 37 8 69 14 70 14 7 0 53 -92 49
-99 -6 -8 -96 -35 -100 -29 -2 2 -15 20 -30 41 -46 61 -75 43 -40 -25 16 -31
9 -47 -23 -48 -15 0 -26 -17 -18 -29 3 -6 18 -6 38 0 27 8 34 6 49 -13 26 -34
22 -45 -21 -55 -38 -10 -39 -10 -72 36 -58 78 -95 56 -50 -29 l19 -35 -41 -20
c-73 -35 -48 -61 40 -42 29 6 34 3 48 -23 12 -24 13 -35 4 -51 -9 -18 -17 -20
-47 -15 -21 3 -45 6 -54 6 -10 0 -18 6 -18 13 0 19 -30 58 -40 52 -5 -3 -5
-17 1 -32 12 -31 0 -43 -46 -43 -16 0 -37 -5 -45 -10 -13 -9 -13 -11 0 -20 20
-13 80 -30 108 -30 32 0 49 -46 26 -71 -28 -31 -58 -24 -89 21 -49 71 -99 46
-60 -30 l15 -29 -42 -11 c-65 -17 -68 -18 -68 -36 0 -14 9 -15 69 -9 82 8 96
-6 54 -55 -22 -27 -31 -31 -66 -28 -37 3 -42 6 -49 36 -11 41 -38 43 -38 2 0
-29 -2 -30 -44 -30 -25 0 -48 -5 -51 -10 -7 -11 -1 -14 61 -30 40 -10 42 -13
46 -51 4 -47 4 -47 -57 -58 -44 -8 -46 -7 -61 20 -19 39 -38 37 -32 -2 3 -17
0 -32 -6 -34 -6 -2 -23 -6 -38 -9 -43 -10 -33 -26 16 -26 42 0 44 -2 49 -32 4
-26 0 -38 -19 -55 -14 -13 -37 -23 -52 -23 -23 0 -30 6 -37 32 -6 18 -18 34
-27 36 -14 3 -18 -4 -18 -31 0 -30 -4 -35 -30 -40 -41 -9 -38 -27 5 -27 33 0
35 -2 35 -34 0 -30 -4 -36 -32 -44 -63 -19 -77 -20 -82 -6 -3 8 -15 14 -27 14
-16 0 -20 -5 -16 -19 4 -15 -2 -20 -29 -26 -49 -9 -43 -30 8 -30 36 0 43 -3
43 -20 0 -17 -8 -20 -52 -23 -43 -2 -53 0 -53 12 0 23 -18 20 -25 -4 -3 -11
-13 -20 -21 -20 -19 0 -18 -10 3 -25 10 -7 14 -19 10 -29 -9 -23 -30 -15 -38
15 -7 24 -7 24 -14 2 -4 -13 -17 -23 -34 -26 -25 -4 -25 -4 -3 -12 39 -13 23
-75 -20 -75 -11 0 -18 7 -18 19 0 11 -4 23 -10 26 -5 3 -10 -4 -10 -15 0 -19
-4 -21 -25 -16 -14 4 -25 2 -25 -3 0 -5 9 -11 20 -14 26 -7 25 -32 -2 -51 -32
-23 -47 -20 -60 12 -11 27 -12 27 -16 4 -2 -16 -8 -22 -19 -18 -8 3 -20 3 -26
-1 -7 -4 -2 -9 13 -13 34 -8 31 -30 -6 -52 -36 -21 -68 -14 -61 12 2 10 1 24
-4 31 -7 11 -10 9 -15 -8 -5 -16 -14 -23 -33 -23 l-26 -1 23 -18 c31 -27 28
-45 -14 -64 -45 -22 -77 -9 -68 27 7 31 -12 43 -26 16 -8 -15 -17 -19 -38 -14
l-27 6 23 -19 c30 -25 22 -70 -15 -84 -37 -14 -56 6 -48 48 7 39 -7 44 -23 8
-10 -21 -17 -24 -39 -20 -28 6 -28 6 -7 -12 16 -15 19 -24 12 -45 -12 -34
-119 -76 -138 -53 -9 11 -6 21 11 44 27 37 19 50 -17 27 -23 -16 -27 -16 -43
-2 -23 21 -35 8 -17 -19 13 -19 11 -24 -25 -62 -31 -33 -49 -44 -94 -53 -43
-9 -59 -9 -70 0 -17 14 -20 46 -5 55 6 3 10 14 10 23 0 15 -1 15 -17 -1 -16
-16 -19 -15 -41 11 -16 18 -22 21 -18 9 17 -53 15 -63 -15 -96 -28 -30 -37
-34 -108 -40 l-78 -6 -18 43 -18 43 39 40 c42 43 29 53 -21 14 l-32 -24 -17
41 c-21 54 -32 42 -17 -17 l12 -46 -48 -44 c-46 -42 -51 -44 -109 -45 l-61 0
-12 56 -13 56 41 42 c23 23 41 45 41 49 0 14 -23 6 -52 -18 -35 -30 -44 -27
-52 20 -12 61 -28 52 -25 -15 l3 -62 -58 -48 c-31 -27 -62 -47 -69 -45 -7 2
-37 9 -67 15 l-55 10 4 52 c3 43 8 55 34 77 53 44 68 61 62 72 -4 6 -24 0 -51
-15 l-44 -25 0 60 c0 78 -15 68 -31 -20 -12 -69 -12 -69 -71 -111 l-60 -42
-72 26 -73 27 21 70 c21 71 21 71 81 101 67 34 70 36 64 43 -3 2 -27 -2 -54
-10 -26 -8 -50 -13 -52 -11 -3 2 0 21 6 43 26 93 4 93 -30 0 l-23 -63 -110
-37 -110 -36 -36 21 c-19 12 -36 22 -37 22 -1 1 9 33 22 71 22 65 26 71 62 83
97 32 124 45 115 54 -6 6 -30 6 -67 -2 -31 -6 -59 -9 -62 -7 -3 3 5 36 17 72
12 36 20 68 18 71 -3 2 -21 -31 -41 -75 -21 -46 -44 -82 -54 -85 -15 -4 -85
-18 -195 -40 -9 -2 -33 10 -52 28 l-35 31 44 90 45 90 71 20 c40 11 74 26 77
34 3 10 -3 12 -24 8 -16 -3 -46 -8 -66 -12 l-37 -6 25 60 c48 119 24 123 -50
9 l-53 -83 -99 -18 c-54 -9 -106 -17 -115 -17 -17 0 -69 50 -69 66 0 6 27 60
60 121 l60 110 82 17 c115 23 126 40 20 30 l-84 -7 20 39 c52 104 26 117 -38
19 -47 -72 -32 -65 -210 -89 -64 -9 -109 -11 -116 -5 -6 5 -19 24 -29 42 l-18
33 47 71 47 70 232 7 c203 6 435 8 672 6 152 -1 245 -38 290 -115 24 -40 25
-47 15 -86 -8 -30 -30 -62 -73 -106 l-61 -64 26 -26 26 -26 47 22 c100 47 150
138 143 260 -3 55 -9 75 -31 104 -37 49 -129 91 -262 120 -124 27 -124 27 10
70 198 65 404 105 705 139 161 18 253 22 525 22 328 0 455 -8 667 -41 105 -16
108 -16 129 3 51 46 64 110 24 119 -14 3 -36 7 -49 10 -137 28 -344 40 -646
38 -210 -1 -306 -7 -540 -33 -157 -17 -301 -35 -320 -40 -51 -13 -179 -30
-220 -30 -297 3 -956 -9 -1035 -19 -103 -13 -265 -8 -294 9 -12 7 -9 9 14 10
61 1 1 20 -63 20 l-63 0 51 66 c27 37 50 71 50 75 0 26 -36 1 -95 -66 l-67
-75 -112 0 -112 0 -21 42 -20 43 95 102 96 103 75 0 c78 0 122 13 85 23 -11 3
-42 9 -71 12 l-52 7 39 50 c40 50 48 72 31 83 -5 3 -43 -24 -83 -60 -71 -64
-74 -66 -118 -61 -25 3 -86 8 -136 12 l-91 6 -16 45 c-9 25 -15 49 -12 53 3 4
42 40 89 79 l83 71 77 0 c89 0 101 16 19 25 l-58 6 74 77 c41 42 69 78 62 80
-6 2 -46 -22 -88 -55 -41 -32 -84 -64 -94 -72 -16 -11 -35 -12 -117 -1 -129
17 -137 21 -149 68 l-10 40 65 54 c36 29 78 64 94 77 28 22 31 23 93 11 87
-16 104 -6 26 16 l-63 18 61 57 c60 56 77 89 44 89 -9 0 -58 -27 -108 -60
l-91 -60 -74 20 c-41 12 -83 23 -92 26 -17 5 -38 60 -38 101 0 15 20 36 70 72
l70 51 59 -15 c112 -29 136 -12 32 23 l-53 18 71 54 c68 52 84 70 60 70 -6 0
-51 -23 -100 -50 -49 -28 -94 -50 -101 -50 -6 0 -42 10 -79 22 l-67 21 -6 45
c-12 86 -12 86 67 136 l73 45 63 -25 c92 -37 111 -4 28 47 l-29 17 45 31 c58
39 77 59 77 77 0 26 -51 15 -126 -26 l-73 -41 -65 35 c-36 19 -71 36 -76 38
-6 2 -14 21 -17 44 l-5 40 94 52 94 52 64 -24 c36 -13 73 -27 83 -31 13 -6 17
-2 17 18 0 19 -7 26 -27 32 -16 3 -39 13 -52 22 l-23 15 33 20 c62 37 79 78
32 78 -16 0 -55 -13 -89 -29 l-61 -29 -79 33 c-78 33 -79 33 -79 70 0 35 3 39
88 93 l88 56 65 -32 c101 -50 128 -37 46 23 -22 17 -41 33 -41 37 -1 4 22 19
49 33 50 25 65 45 34 45 -9 0 -43 -12 -75 -26 l-59 -27 -95 49 c-52 27 -94 54
-92 59 3 11 145 84 164 85 7 0 41 -13 75 -30 34 -16 63 -30 65 -30 2 0 3 8 3
18 0 9 -19 30 -42 46 l-41 30 51 25 c29 14 52 31 52 38 0 17 1 17 -77 -12
l-68 -26 -82 43 c-72 38 -83 46 -83 70 0 36 15 49 98 82 l71 29 51 -37 c47
-34 70 -39 70 -16 0 5 -15 25 -34 43 l-34 34 44 21 c44 22 60 52 27 52 -10 -1
-36 -7 -58 -15 -22 -8 -45 -15 -51 -15 -16 0 -144 102 -144 115 0 18 15 27 93
59 l67 28 38 -26 c54 -37 72 -33 33 8 l-33 34 29 15 c35 19 59 45 49 54 -4 4
-36 0 -72 -10 l-66 -17 -44 36 c-43 36 -50 54 -38 100 3 13 30 32 70 52 l66
33 47 -35 c44 -32 61 -36 61 -15 0 4 -13 21 -30 37 l-29 30 39 26 c65 43 46
68 -29 41 -58 -20 -60 -20 -105 19 -37 32 -38 34 -27 67 9 29 23 40 76 67 l65
32 35 -38 c27 -29 35 -33 35 -19 0 11 -9 32 -20 48 l-21 28 29 15 c38 20 52
51 20 43 -93 -21 -84 -22 -116 22 -26 36 -29 46 -21 74 5 17 9 33 9 34 0 2 21
16 48 33 l47 30 27 -33 c32 -39 44 -31 28 18 -7 20 -10 37 -8 39 81 52 103 96
48 96 -17 0 -44 -7 -60 -15 -28 -15 -29 -14 -39 18 -10 30 -3 53 80 267 50
129 106 276 124 326 23 66 55 125 113 210 446 656 1171 1199 1902 1424 412
126 798 163 1208 114z m-3518 -2664 l21 -29 -37 -16 c-47 -19 -47 -19 -38 8
13 41 23 67 28 67 3 0 14 -13 26 -30z m-96 -306 c-16 -7 -30 -11 -31 -11 -1 1
1 14 4 29 5 27 6 27 31 10 l25 -16 -29 -12z m-50 -280 c-21 -6 -39 -11 -40
-10 -1 0 1 18 3 38 l5 37 36 -27 35 -27 -39 -11z m-12 -240 l27 -22 -42 -17
c-23 -10 -47 -19 -54 -22 -7 -3 -10 3 -8 14 2 10 7 35 10 56 7 42 2 43 67 -9z
m-30 -325 c-79 -34 -77 -35 -74 25 l4 54 53 -31 54 -32 -37 -16z m25 -233 c10
-9 -1 -19 -52 -44 l-65 -32 0 63 c0 35 3 67 7 70 6 7 86 -35 110 -57z m7206
-209 c16 -11 13 -18 -35 -77 -98 -120 -200 -282 -326 -515 -41 -77 -94 -167
-117 -200 -23 -33 -65 -114 -93 -180 -27 -66 -88 -205 -135 -310 -76 -170 -91
-214 -142 -415 -67 -268 -95 -421 -135 -744 -54 -441 -64 -603 -64 -1056 0
-309 4 -477 18 -660 27 -348 25 -398 -9 -405 -11 -3 -119 -18 -240 -35 -121
-17 -232 -33 -246 -36 -25 -5 -26 -3 -38 68 -90 568 22 1654 280 2707 103 422
194 716 315 1014 35 88 64 165 64 173 0 30 17 12 34 -37 23 -64 76 -119 115
-119 52 0 99 78 104 170 1 27 4 50 7 50 3 0 14 -16 25 -36 23 -43 64 -74 97
-74 54 0 98 85 104 199 l3 75 74 85 c67 79 142 185 144 204 1 4 16 44 35 87
l33 80 56 0 c30 0 63 -6 72 -13z m-7269 -81 l39 -24 -41 -21 c-23 -12 -44 -21
-47 -21 -3 0 -5 20 -5 45 0 25 3 45 8 45 4 0 24 -11 46 -24z m7379 -12 l29
-34 -61 0 c-34 0 -61 3 -61 7 0 9 52 63 59 62 3 0 19 -16 34 -35z m-683 -168
c0 -2 -7 -33 -16 -68 -21 -80 -15 -210 12 -265 39 -78 94 -36 111 86 9 58 33
84 33 34 -1 -52 -28 -155 -48 -182 -56 -75 -138 10 -162 167 -17 107 10 232
50 232 11 0 20 -2 20 -4z m765 -56 c155 -18 323 -64 434 -120 56 -27 106 -50
112 -50 6 0 53 -25 104 -55 52 -30 96 -55 99 -55 7 0 112 -68 161 -105 74 -55
310 -287 349 -344 21 -31 63 -82 92 -114 68 -74 123 -151 221 -312 44 -71 116
-186 161 -255 70 -108 79 -126 65 -135 -36 -22 -52 -46 -69 -99 -10 -31 -21
-56 -26 -56 -4 0 -8 -12 -8 -26 0 -14 -5 -46 -11 -70 -9 -33 -14 -42 -21 -32
-7 9 -8 4 -4 -15 8 -36 -9 -67 -37 -68 l-22 -1 21 -6 c22 -7 22 -7 4 -51 -10
-28 -19 -39 -23 -30 -3 8 -4 1 -4 -16 2 -24 -2 -31 -20 -33 -25 -4 -31 -19 -9
-24 12 -3 12 -9 -1 -41 -12 -28 -18 -35 -28 -27 -9 8 -12 2 -11 -27 1 -34 -2
-38 -29 -44 -23 -5 -25 -7 -7 -8 27 -1 27 0 1 -73 -20 -53 -23 -57 -36 -41
-13 16 -14 16 -9 -9 5 -22 2 -27 -16 -30 -13 -2 -21 -7 -19 -13 2 -5 12 -9 23
-7 22 4 22 3 2 -48 -16 -40 -34 -45 -34 -9 0 10 -5 19 -11 19 -10 0 -10 -15 3
-70 2 -7 -8 -16 -22 -20 -21 -5 -23 -8 -9 -16 15 -8 15 -11 -1 -37 l-18 -28
-22 30 c-12 17 -25 29 -30 26 -5 -3 2 -17 16 -32 13 -14 24 -33 24 -42 0 -9 3
-26 6 -38 6 -22 3 -23 -47 -24 -93 -1 -103 -18 -12 -18 80 -1 83 -2 97 -29 8
-15 26 -34 41 -42 26 -14 29 -13 51 13 13 16 24 23 24 18 0 -6 7 -11 16 -11
12 0 15 7 12 25 -4 20 -1 25 16 26 19 0 19 1 5 11 -25 17 -4 61 24 52 17 -5
19 -3 13 20 -8 33 9 66 34 66 21 0 27 16 9 22 -8 3 -6 14 5 36 9 18 21 30 26
27 6 -4 10 3 10 14 0 23 20 71 30 71 4 0 7 6 8 13 1 18 113 292 121 295 26 11
35 22 23 30 -10 7 -7 22 12 73 22 59 25 62 31 37 4 -16 11 -28 15 -28 4 0 3
17 -3 38 -7 28 -6 57 5 112 l15 75 63 -125 c61 -121 171 -364 192 -425 6 -16
32 -89 59 -161 93 -254 187 -591 243 -874 52 -262 136 -853 124 -866 -3 -3
-41 6 -85 19 -87 28 -261 60 -428 79 -173 20 -940 17 -1175 -5 -406 -39 -668
-81 -929 -149 -86 -22 -169 -43 -186 -46 -16 -2 -32 -8 -35 -12 -21 -28 -160
-45 -160 -19 0 12 104 81 185 121 39 20 104 46 145 58 85 25 110 43 110 77 0
29 -30 31 -68 4 -15 -10 -61 -33 -103 -50 -42 -17 -97 -45 -121 -60 -25 -16
-50 -26 -54 -21 -5 4 -33 20 -61 35 -29 15 -53 31 -53 35 0 24 259 190 344
220 50 18 66 33 66 63 0 41 -82 7 -241 -99 l-69 -46 -66 28 -67 28 39 33 c66
56 204 146 289 188 60 30 81 46 83 63 2 15 -2 22 -12 22 -17 0 -121 -61 -197
-115 l-46 -33 -64 30 c-79 38 -76 35 -53 53 133 104 286 195 343 204 30 5 37
11 39 34 2 17 -2 29 -12 33 -34 13 -198 -81 -340 -194 -45 -36 -66 -48 -63
-36 3 11 9 54 13 97 l6 78 35 -21 c37 -22 73 -26 73 -10 0 6 -20 19 -45 30
-25 11 -45 21 -45 23 0 10 165 131 232 170 50 30 74 50 76 65 5 36 -36 27
-112 -26 l-69 -48 -54 34 c-29 19 -53 38 -53 42 0 12 144 108 202 135 29 14
61 22 72 19 21 -7 36 10 36 44 0 14 -6 22 -17 22 -32 0 -136 -56 -213 -113
-40 -31 -75 -55 -76 -54 -1 1 3 32 8 68 l10 67 29 -16 c21 -13 31 -14 40 -5 9
9 3 17 -25 35 -20 12 -36 28 -36 34 0 28 199 144 248 144 38 0 24 34 -15 38
-36 4 -73 -13 -160 -73 l-61 -43 5 56 c3 32 7 58 9 60 1 2 14 -4 28 -13 40
-26 52 -14 21 23 l-26 31 55 36 c30 19 76 43 101 53 47 18 50 32 8 32 -29 0
-73 -22 -135 -67 l-48 -35 0 46 c0 44 -1 45 -37 55 -57 16 -70 14 -77 -14 -4
-14 -10 -24 -14 -21 -7 4 -121 -19 -127 -26 -1 -2 -13 -38 -25 -81 l-23 -78
-27 41 c-34 51 -45 42 -18 -14 l20 -42 -68 -86 c-71 -88 -125 -173 -106 -167
6 2 42 42 79 88 38 47 73 86 80 88 8 3 6 -14 -4 -56 -9 -34 -19 -61 -24 -61
-5 0 -8 -12 -7 -27 3 -56 -25 -138 -70 -206 -31 -45 -42 -71 -36 -77 7 -7 19
2 38 27 l27 38 -6 -36 c-65 -366 -70 -712 -14 -1008 24 -123 61 -246 96 -315
14 -27 22 -58 19 -68 -3 -14 1 -22 12 -25 9 -2 32 -27 50 -55 29 -44 32 -54
23 -75 -16 -34 -14 -39 9 -18 20 18 21 18 64 -24 29 -28 42 -49 38 -59 -4 -11
-1 -14 11 -9 8 3 45 -9 82 -27 l66 -34 -128 -6 c-70 -3 -204 -7 -297 -8 l-170
-3 -38 110 c-20 61 -47 155 -58 210 -23 113 -40 188 -77 325 -14 52 -27 117
-28 145 -2 27 -14 109 -28 180 -14 72 -33 191 -42 265 -22 180 -31 682 -16
905 70 1044 367 2105 788 2815 58 97 73 116 98 121 48 10 192 10 290 -1z
m-995 -54 c0 -2 -7 -33 -16 -68 -31 -118 -2 -297 49 -306 28 -6 46 16 63 76
13 42 18 52 25 39 24 -42 -25 -159 -70 -165 -72 -11 -147 186 -122 320 15 80
28 108 51 108 11 0 20 -2 20 -4z m-696 -55 l-7 -33 -23 29 -22 28 26 6 c15 3
28 5 30 4 1 -1 -1 -16 -4 -34z m-5774 -6 c17 -9 30 -18 30 -20 0 -2 -13 -11
-29 -19 -27 -15 -29 -14 -35 7 -7 28 -8 47 -1 47 4 0 19 -7 35 -15z m6160
-174 c36 -17 70 -31 77 -31 6 0 21 -17 33 -37 l22 -37 -41 -85 c-40 -84 -41
-85 -41 -45 0 22 -7 49 -15 60 -13 17 -14 16 -5 -16 16 -57 12 -103 -16 -171
-14 -35 -28 -66 -30 -68 -2 -2 -13 4 -24 14 -26 23 -26 11 0 -17 16 -17 17
-25 8 -42 -7 -13 -13 -16 -16 -8 -2 6 -9 12 -16 12 -10 0 -12 20 -8 78 5 86
-11 207 -33 255 -8 18 -32 60 -54 95 l-39 63 15 44 15 44 51 -39 c29 -21 81
-52 117 -69z m616 44 c-20 -52 -31 -61 -51 -45 -25 21 -17 46 23 72 20 14 39
24 41 22 2 -2 -4 -24 -13 -49z m-235 -119 c-11 -25 -24 -46 -29 -46 -14 0 -29
22 -37 51 -6 23 -3 26 37 35 24 5 45 9 46 8 2 -1 -5 -23 -17 -48z m-563 -13
c75 -166 70 -379 -13 -613 -68 -188 -229 -460 -401 -675 -99 -124 -400 -429
-544 -550 l-94 -80 75 95 c299 379 512 752 734 1286 71 169 164 424 192 524 9
33 19 60 23 60 4 0 16 -21 28 -47z m-295 -63 c-6 -24 -16 -25 -32 -6 -10 12
-8 15 11 19 13 2 24 5 25 6 0 0 -1 -8 -4 -19z m-5609 -30 c16 -5 13 -10 -19
-29 -21 -12 -39 -21 -40 -19 -2 2 -6 18 -10 36 -7 32 -6 33 22 26 15 -4 36
-10 47 -14z m105 -316 c10 -3 -3 -17 -37 -39 -28 -19 -53 -35 -55 -35 -3 0 -8
16 -11 36 -4 19 -9 41 -12 48 -4 11 6 12 48 4 29 -5 59 -11 67 -14z m5926 6
c4 -6 3 -24 0 -41 -6 -27 -9 -29 -22 -17 -9 10 -12 24 -7 41 6 28 18 34 29 17z
m-558 -46 l-14 -26 -22 30 -21 31 32 3 c40 4 44 -2 25 -38z m538 -40 c0 -5
-33 -106 -72 -225 -59 -178 -137 -446 -193 -667 -13 -50 -37 -79 -224 -270
-145 -148 -286 -275 -446 -402 l-105 -83 -6 37 c-9 54 -15 52 -15 -4 0 -38 -5
-53 -20 -64 -18 -14 -19 -12 -25 32 l-6 47 -1 -52 c-2 -64 -21 -82 -24 -21
l-1 43 -6 -50 -6 -50 -110 -77 c-102 -71 -318 -209 -426 -272 l-46 -26 14 61
c16 70 10 94 -7 28 -21 -83 -31 -107 -45 -113 -11 -4 -15 4 -16 32 l-1 37 -11
-42 c-7 -23 -18 -48 -25 -55 -11 -11 -12 -7 -7 25 5 23 3 42 -4 51 -9 11 8 28
84 85 119 89 212 169 345 296 58 55 150 136 205 180 55 43 130 105 167 137 75
66 74 67 81 -32 2 -28 4 -16 5 31 2 61 6 79 22 94 19 17 19 16 23 -56 l3 -74
2 81 c2 71 5 83 26 104 l25 23 7 -27 c3 -14 3 -47 -1 -72 -5 -33 -3 -44 5 -39
7 4 10 33 9 77 -2 63 0 72 24 96 l27 27 0 -68 c0 -48 3 -66 11 -61 8 4 10 30
7 75 -5 62 -3 70 18 90 28 26 29 24 42 -76 9 -66 9 -67 10 -20 1 28 -3 69 -7
93 l-9 43 86 92 c74 80 233 274 298 363 l22 29 11 -35 11 -35 -5 44 c-4 32 -1
51 12 70 l18 26 6 -65 6 -65 -1 75 c0 68 3 80 32 130 79 133 182 383 182 441
0 12 5 19 13 17 6 -3 12 -9 12 -14z m-662 -249 c-15 -30 -30 -55 -33 -55 -3 1
-20 20 -37 43 l-32 42 47 12 c85 20 85 20 55 -42z m-5134 -14 c22 -6 21 -8
-29 -55 -28 -26 -55 -44 -59 -40 -5 5 -15 30 -24 57 l-16 47 52 -1 c29 -1 63
-4 76 -8z m4975 -283 c-19 -33 -27 -38 -40 -27 -26 21 -19 28 39 38 5 0 5 -5
1 -11z m-4812 -65 c-39 -49 -100 -108 -106 -102 -3 2 -18 35 -35 72 l-30 67
100 0 101 0 -30 -37z m4698 -119 c0 -3 -5 -14 -11 -25 -8 -16 -13 -18 -25 -8
-19 15 -18 27 4 32 27 7 32 7 32 1z m-5791 -209 c150 -3 269 -9 275 -15 6 -6
3 -24 -7 -52 -25 -61 -5 -69 33 -13 l32 47 29 -28 c35 -34 49 -24 25 16 -14
24 -15 31 -4 35 27 10 1139 -12 1150 -23 8 -8 0 -16 -26 -28 -36 -18 -48 -34
-23 -34 6 0 43 14 82 30 l69 30 24 -30 c13 -16 30 -30 38 -30 19 0 18 9 -3 32
-15 17 -15 20 -3 28 16 11 309 14 334 4 23 -9 23 -145 0 -179 -18 -28 -34 -33
-34 -11 0 26 -21 29 -44 7 -29 -27 -36 -26 -36 4 0 14 -4 25 -9 25 -5 0 -16
-11 -25 -25 -9 -14 -21 -25 -26 -25 -6 0 -10 11 -10 25 0 14 -4 25 -9 25 -5 0
-16 -11 -25 -25 -20 -30 -46 -33 -46 -5 0 11 -4 20 -8 20 -5 0 -17 -9 -27 -20
-21 -23 -41 -26 -48 -7 -3 9 -9 7 -24 -5 -11 -10 -30 -18 -42 -18 -20 0 -22 4
-17 24 9 37 -7 39 -39 6 -37 -39 -55 -38 -55 0 0 17 -4 30 -10 30 -5 0 -10 -4
-10 -10 0 -13 -37 -50 -50 -50 -6 0 -8 11 -4 25 8 32 0 31 -40 -2 -31 -26 -31
-26 -34 -5 -4 27 -10 27 -39 1 -19 -18 -25 -20 -38 -9 -13 11 -19 10 -33 -4
-24 -21 -56 -22 -48 -1 7 19 -13 19 -38 0 -25 -19 -36 -19 -36 0 0 21 -20 19
-47 -7 -20 -19 -23 -19 -23 -4 0 9 9 35 20 57 12 22 18 44 15 49 -10 17 -32
-1 -50 -41 -20 -44 -27 -47 -46 -20 -8 11 -25 22 -38 26 l-24 7 21 -35 c28
-45 28 -57 -3 -57 -20 0 -25 5 -25 25 0 14 -4 25 -8 25 -5 0 -14 -11 -20 -25
-14 -31 -47 -35 -39 -5 8 32 -7 31 -37 -1 -31 -33 -51 -33 -51 -2 0 30 -12 38
-20 14 -3 -12 -15 -26 -26 -32 -23 -12 -54 -4 -44 11 3 5 3 15 0 20 -4 6 -18
-2 -35 -20 -35 -37 -54 -39 -48 -5 8 37 -5 38 -37 5 -36 -38 -48 -38 -40 0 4
17 4 30 0 30 -4 0 -20 -13 -35 -30 -35 -37 -55 -39 -46 -5 8 33 -3 32 -37 -5
-35 -37 -49 -38 -41 -5 4 15 2 25 -4 25 -6 0 -19 -11 -30 -25 -24 -30 -56 -34
-47 -6 10 32 -12 33 -43 1 -40 -40 -62 -40 -57 0 2 17 1 30 -4 30 -4 0 -17
-13 -29 -30 -30 -40 -61 -41 -54 -3 l5 28 -37 -33 c-44 -39 -56 -40 -56 -7 0
31 -9 31 -39 0 -34 -37 -59 -33 -53 7 l5 31 -36 -36 c-44 -46 -57 -46 -57 -4
l-1 32 -27 -33 c-15 -18 -33 -32 -39 -32 -16 0 -16 2 -3 34 13 36 -6 43 -24 8
-8 -16 -26 -37 -40 -46 -26 -16 -26 -16 -26 14 0 23 9 39 30 57 35 29 60 72
60 104 0 21 -69 117 -96 132 -8 4 -14 14 -14 22 0 11 11 13 48 10 26 -3 166
-7 311 -10z m2358 -53 c4 -8 -2 -21 -12 -28 -26 -19 -35 -17 -35 5 0 10 -9 21
-21 24 -29 8 -63 -28 -55 -57 8 -33 -2 -38 -33 -15 -16 12 -34 17 -44 13 -21
-8 -22 -40 -2 -48 8 -3 15 -10 15 -15 0 -5 -12 -3 -27 4 -25 13 -28 13 -35 -5
-13 -34 -18 -22 -18 38 1 46 3 54 13 42 17 -21 45 -13 74 20 24 29 41 34 126
36 35 1 50 -3 54 -14z m122 14 c-2 -2 -17 -6 -34 -10 -22 -5 -26 -4 -15 4 14
9 59 15 49 6z m-369 -10 c0 -3 -4 -8 -10 -11 -5 -3 -10 -1 -10 4 0 6 5 11 10
11 6 0 10 -2 10 -4z m4294 -160 c-44 -194 -136 -729 -149 -864 -4 -36 -11 -49
-22 -39 -4 4 -1 13 5 19 7 7 12 17 12 23 0 5 -9 -4 -20 -21 -17 -25 -30 -33
-66 -39 -25 -3 -48 -4 -51 -2 -2 3 3 18 12 34 17 28 17 28 -1 7 -11 -12 -23
-29 -29 -37 -5 -8 -30 -19 -55 -22 -41 -7 -43 -6 -31 9 8 9 11 19 8 23 -4 3
-12 -6 -18 -20 -9 -19 -24 -29 -63 -39 -28 -7 -55 -13 -61 -14 -5 0 -32 -11
-60 -23 -27 -13 -55 -24 -61 -25 -5 -1 -22 -10 -35 -21 -14 -11 -43 -29 -65
-40 -21 -11 -41 -23 -44 -26 -10 -12 -72 -40 -66 -30 4 6 2 11 -3 11 -6 0 -11
-6 -11 -12 0 -18 -104 -88 -130 -88 -12 0 -19 -4 -16 -9 3 -5 -5 -16 -18 -25
-18 -11 -24 -24 -24 -48 1 -42 32 -104 59 -118 18 -10 27 -6 67 27 26 22 55
42 65 46 9 4 55 31 100 61 46 30 90 56 98 58 8 2 19 10 26 19 14 19 89 43 104
33 6 -4 15 -1 19 5 4 7 54 25 111 41 57 16 127 36 155 45 83 25 88 23 81 -32
-20 -154 -29 -414 -24 -648 6 -259 15 -357 43 -469 9 -32 12 -62 7 -66 -4 -5
-116 -27 -248 -50 -132 -22 -297 -51 -367 -64 l-127 -23 -418 172 c-230 94
-442 184 -472 199 -86 44 -119 39 -327 -48 l-179 -75 -23 44 c-12 24 -31 49
-41 54 -10 6 -21 21 -24 33 -10 39 -62 61 -167 69 -89 8 -157 4 -400 -22 -52
-5 -159 -16 -238 -24 -79 -8 -154 -18 -167 -21 -20 -5 -25 -2 -29 18 -2 12
-20 88 -39 168 -19 80 -34 146 -32 148 1 2 47 7 101 13 500 50 1014 212 1594
503 612 307 1140 684 1585 1132 105 105 190 191 191 192 1 1 -10 -45 -22 -102z
m-849 64 c-3 -5 -10 -10 -16 -10 -5 0 -9 5 -9 10 0 6 7 10 16 10 8 0 12 -4 9
-10z m-4151 -182 c-20 -35 -46 -68 -54 -68 -8 0 -50 61 -50 74 0 3 25 6 56 6
41 0 53 -3 48 -12z m3906 -112 c0 -3 -4 -8 -10 -11 -5 -3 -10 -1 -10 4 0 6 5
11 10 11 6 0 10 -2 10 -4z m-3630 -112 c0 -9 -82 -144 -90 -149 -4 -3 -31 23
-59 58 l-51 62 87 16 c107 20 113 21 113 13z m3505 -24 c-14 -16 -20 -17 -26
-8 -7 12 2 18 40 27 2 1 -4 -8 -14 -19z m-3316 -320 c-36 -67 -27 -67 -102 0
l-29 25 69 17 c100 24 98 25 62 -42z m-185 -205 c25 -16 27 -22 20 -59 -8 -51
-36 -90 -52 -74 -16 16 -26 4 -15 -16 11 -21 -53 -155 -95 -200 -43 -45 -82
-125 -47 -96 25 21 28 5 10 -52 -15 -44 -31 -66 -101 -131 -80 -75 -111 -113
-101 -123 2 -3 27 16 55 42 l52 46 12 -27 c10 -22 8 -37 -10 -93 -19 -59 -30
-74 -92 -130 -64 -58 -113 -122 -92 -122 13 0 55 31 100 74 23 22 42 38 42 35
0 -3 -9 -48 -19 -99 l-20 -92 -75 -78 c-46 -47 -76 -86 -76 -99 0 -11 3 -21 7
-21 4 0 34 26 66 58 l60 57 -7 -35 c-4 -19 -9 -52 -13 -73 -5 -34 -8 -38 -29
-33 -28 7 -31 -5 -8 -25 13 -11 15 -24 10 -69 -5 -43 -14 -62 -40 -90 -52 -55
-76 -91 -76 -113 0 -15 3 -17 13 -8 11 8 19 5 35 -12 17 -18 20 -30 15 -66 -5
-38 -16 -53 -75 -111 -68 -67 -99 -122 -35 -64 17 16 45 41 61 54 l28 25 -7
-55 c-9 -72 -17 -86 -34 -66 -8 9 -20 16 -29 16 -11 0 -7 -9 13 -30 40 -42 35
-78 -21 -147 -43 -52 -59 -101 -30 -90 7 3 21 -4 30 -14 31 -36 12 -85 -65
-167 -38 -39 -69 -81 -69 -91 0 -32 21 -36 44 -10 l21 25 23 -28 c20 -24 22
-34 16 -80 -8 -63 -12 -72 -59 -127 -34 -42 -44 -74 -26 -86 6 -3 22 11 36 32
l27 38 -7 -80 c-6 -74 -9 -84 -51 -139 -41 -56 -56 -96 -35 -96 6 0 18 13 28
30 17 30 28 37 36 23 3 -5 1 -47 -2 -94 -6 -71 -12 -92 -34 -121 -15 -19 -27
-42 -27 -51 0 -22 26 -22 40 1 8 13 9 -1 4 -53 -5 -55 -13 -79 -35 -109 -16
-22 -29 -46 -29 -52 0 -27 19 -23 39 9 l21 32 0 -63 c0 -57 -3 -68 -35 -109
-39 -52 -41 -56 -21 -72 12 -10 18 -6 33 21 l18 33 3 -33 c2 -21 -3 -41 -12
-51 -9 -10 -16 -23 -16 -29 0 -7 -2 -12 -3 -12 -13 0 -346 124 -363 135 -12 7
-39 17 -60 20 -21 4 -82 20 -134 37 -52 16 -130 38 -174 48 -43 11 -80 21 -83
23 -2 3 1 15 6 28 5 13 22 96 36 184 78 465 298 1179 544 1767 239 571 643
1354 785 1520 l40 47 41 -38 c23 -21 54 -46 69 -56z m476 21 c0 -2 -9 -24 -20
-50 l-21 -46 -39 26 c-22 15 -40 30 -40 34 0 4 24 14 53 22 60 18 67 19 67 14z
m2725 -66 c3 -5 1 -28 -5 -50 -11 -40 -12 -41 -198 -134 -301 -151 -563 -259
-823 -340 -63 -20 -118 -36 -120 -36 -3 0 -4 15 -3 33 l3 32 -11 -37 c-14 -46
-47 -59 -49 -20 -2 23 -2 24 -6 5 -2 -12 -11 -27 -19 -33 -16 -14 -17 0 -5 54
6 28 9 29 141 56 337 70 670 210 958 401 64 42 120 78 124 78 4 1 10 -3 13 -9z
m-2462 -127 c-9 -27 -17 -49 -18 -51 -2 -2 -25 8 -52 21 -47 25 -48 25 -23 35
14 6 41 17 60 26 50 22 50 21 33 -31z m-439 -43 c56 -35 98 -69 116 -95 40
-57 95 -107 170 -154 36 -22 72 -47 80 -55 23 -22 123 -216 112 -216 -17 0
-136 32 -152 40 -8 5 -22 30 -31 57 -11 29 -18 40 -18 26 -1 -12 4 -34 9 -48
9 -24 8 -26 -7 -20 -10 4 -26 9 -35 12 -19 6 -38 52 -38 91 0 19 -3 23 -11 15
-7 -7 -8 -22 -1 -47 6 -20 7 -36 2 -36 -21 0 -52 40 -65 85 l-15 50 4 -48 4
-48 -37 27 c-65 49 -112 98 -161 171 -71 106 -77 132 -48 198 12 30 25 54 28
52 3 -1 45 -27 94 -57z m2086 -24 c0 -3 -4 -8 -10 -11 -5 -3 -10 -1 -10 4 0 6
5 11 10 11 6 0 10 -2 10 -4z m-1370 -66 c0 -13 -7 -20 -20 -20 -25 0 -25 9 -2
26 22 17 22 17 22 -6z m1154 -9 c3 -5 -3 -11 -15 -14 -16 -4 -18 -3 -8 9 13
16 16 17 23 5z m-846 -76 c-3 -3 -19 -2 -37 1 l-32 7 28 29 28 29 9 -30 c5
-17 7 -34 4 -36z m-1195 30 c-7 -21 -13 -19 -13 6 0 11 4 18 10 14 5 -3 7 -12
3 -20z m427 -7 c0 -6 -6 -5 -15 2 -8 7 -15 14 -15 16 0 2 7 1 15 -2 8 -4 15
-11 15 -16z m5533 -20 l28 -14 -57 -49 c-38 -33 -55 -43 -51 -29 3 10 9 45 13
77 6 52 8 57 23 44 9 -8 29 -21 44 -29z m-4469 10 c9 -37 8 -38 -36 -38 l-42
0 29 30 c34 36 41 37 49 8z m296 1 c0 -5 -7 -9 -15 -9 -15 0 -20 12 -9 23 8 8
24 -1 24 -14z m-1705 -114 c120 -169 290 -264 587 -329 32 -7 40 -23 98 -196
33 -98 90 -305 90 -325 0 -3 -4 -4 -9 -1 -5 4 -11 3 -13 -1 -7 -17 -82 -66
-102 -67 -11 -1 -20 -7 -19 -13 1 -6 -19 -28 -45 -49 -86 -71 -80 -70 -72 -22
5 24 6 45 4 48 -9 8 -23 -25 -30 -68 -8 -53 -48 -104 -78 -100 -15 2 -20 -2
-18 -14 1 -9 -3 -20 -9 -24 -9 -5 -10 1 -6 23 3 17 8 54 11 84 5 48 3 45 -15
-29 l-21 -84 -48 7 c-59 8 -76 -10 -23 -24 21 -6 45 -11 53 -11 8 0 -1 -15
-23 -38 -20 -21 -37 -44 -37 -51 0 -24 63 -91 85 -91 12 0 42 16 66 35 24 19
49 35 54 35 6 0 53 27 105 59 81 50 96 57 102 43 5 -14 7 -13 7 5 1 19 57 72
65 62 7 -9 59 -328 61 -374 6 -182 -245 -714 -527 -1115 -114 -162 -315 -425
-424 -555 -109 -131 -262 -295 -275 -295 -10 0 -13 213 -2 223 3 4 17 0 30 -8
31 -20 29 -5 -2 25 -24 23 -25 28 -25 146 l0 123 45 -26 c25 -13 45 -20 45
-14 0 5 -20 27 -45 48 l-45 37 0 164 0 163 44 -31 c67 -49 75 -31 12 28 -55
52 -56 54 -56 109 0 38 5 62 17 75 9 11 11 18 5 18 -7 0 -12 18 -12 46 l0 45
29 -20 c16 -12 44 -24 63 -27 31 -6 29 -3 -31 42 l-63 48 6 60 c4 34 6 87 6
119 -2 102 4 106 63 46 43 -43 98 -79 123 -79 3 0 -35 40 -85 88 -88 85 -91
90 -85 123 4 19 16 44 27 57 19 20 19 22 3 22 -14 0 -16 6 -12 28 3 15 8 45
12 67 4 22 8 43 11 47 2 4 31 -13 63 -39 33 -25 62 -44 64 -42 3 2 -22 36 -54
74 -63 75 -71 100 -45 149 17 32 19 39 7 32 -8 -5 3 89 14 123 3 10 20 0 54
-34 28 -27 50 -46 50 -41 0 5 -20 37 -45 73 -49 70 -56 107 -29 158 8 16 11
31 7 32 -5 2 -4 35 1 73 l10 70 43 -42 c24 -23 43 -38 43 -32 0 6 -18 40 -39
76 -46 75 -45 98 2 141 31 27 23 36 -14 17 -22 -12 -23 -2 -13 147 l7 89 33
-64 c35 -66 102 -157 111 -148 3 2 -18 42 -45 88 -28 45 -60 103 -72 128 l-22
46 37 37 c42 42 41 56 -2 33 l-29 -15 9 67 c4 37 12 83 16 102 l7 35 46 -70
c43 -67 108 -138 108 -120 0 5 -30 53 -67 107 l-67 98 35 30 c35 30 21 44 -17
15 -10 -8 -22 -15 -25 -15 -11 0 19 132 33 146 12 13 19 8 46 -30 18 -25 47
-55 64 -67 38 -27 30 -12 -31 59 l-45 54 40 33 c21 19 42 34 47 35 4 0 7 4 7
9 0 11 -43 0 -87 -23 -43 -22 -46 -8 -23 106 11 51 20 98 20 103 1 6 7 -5 15
-24 9 -18 35 -62 60 -96z m605 29 c69 -23 153 -48 187 -55 l63 -13 40 -78 c49
-94 109 -271 144 -429 30 -136 31 -149 10 -149 -9 0 -12 5 -8 12 10 15 -54 2
-75 -16 -9 -7 -34 -18 -56 -23 -22 -6 -47 -13 -55 -17 -12 -5 -20 11 -38 75
-64 230 -249 608 -356 728 -20 23 -20 24 -1 16 11 -4 76 -27 145 -51z m1134
-126 c-4 -24 -9 -46 -13 -50 -8 -9 -295 -73 -411 -92 -148 -25 -284 -35 -292
-22 -14 20 -8 24 57 36 36 7 68 16 71 22 3 5 -5 6 -18 3 -78 -18 -123 -23
-130 -12 -10 16 0 27 25 27 32 0 67 11 67 21 0 5 -6 7 -12 5 -7 -3 -32 -7 -55
-10 -40 -6 -43 -4 -58 24 l-16 30 63 1 c35 0 99 4 143 9 44 5 159 14 256 20
97 6 203 14 235 19 100 15 95 17 88 -31z m-2177 -53 c-8 -28 -13 -32 -24 -23
-11 9 -10 15 8 35 13 12 24 23 25 23 1 0 -3 -16 -9 -35z m6269 -223 l49 -27
-62 -53 -63 -52 0 91 c0 76 2 90 14 80 7 -6 36 -24 62 -39z m-22 -218 c25 -14
46 -27 46 -28 0 -2 -22 -22 -50 -45 l-50 -42 0 70 c0 39 2 71 4 71 2 0 24 -12
50 -26z m-3763 -110 c28 -8 99 -105 114 -158 15 -49 48 -357 39 -365 -13 -14
-24 35 -49 222 -25 187 -31 212 -53 239 l-25 30 -96 -6 c-140 -10 -907 -46
-959 -46 -25 0 -43 2 -41 4 5 5 201 32 334 46 132 14 396 39 450 43 56 4 261
-2 286 -9z m3776 -85 c30 -17 53 -35 51 -39 -5 -14 -107 -90 -120 -90 -9 0
-12 16 -10 57 3 67 10 103 18 103 4 0 31 -14 61 -31z m2158 10 c66 -5 176 -7
245 -4 105 4 132 2 170 -13 53 -21 46 6 84 -337 59 -527 63 -1017 10 -1445
-39 -320 -149 -731 -222 -830 -11 -14 -19 -39 -20 -57 -2 -66 -71 -151 -141
-171 -70 -21 -130 -13 -405 58 -277 71 -1024 247 -1356 319 -102 23 -232 52
-290 66 -58 14 -188 43 -290 65 -556 119 -1431 323 -1501 350 -114 44 -192 60
-294 60 -99 0 -167 -14 -278 -59 -141 -57 -334 -142 -432 -192 l-100 -50 -255
-6 c-264 -5 -873 13 -901 28 -9 4 -31 50 -49 101 -18 51 -41 109 -51 129 l-18
37 27 6 c15 4 158 9 318 13 213 4 293 3 298 -6 13 -21 45 -11 61 19 35 67 5
101 -72 80 -33 -10 -124 -11 -376 -6 -183 4 -350 9 -372 12 l-40 6 -50 153
-50 153 30 -4 c178 -25 364 -37 635 -41 173 -3 319 -9 325 -14 5 -5 15 -9 22
-9 16 0 46 57 40 75 -8 19 -58 25 -94 12 -24 -8 -91 -8 -263 1 -211 11 -248
16 -433 57 -111 24 -256 55 -322 68 l-120 24 -14 192 c-7 105 -11 194 -9 197
6 5 672 -61 1027 -102 218 -25 225 -26 238 -8 22 30 27 65 12 75 -18 11 -34
12 -594 55 -264 19 -558 42 -653 49 -95 7 -175 15 -176 16 -2 2 -1 73 2 158
l5 153 286 -4 c374 -6 1107 9 1202 25 63 11 76 16 89 39 28 51 17 53 -305 56
l-293 4 -7 71 c-3 40 -7 98 -8 131 l-2 58 163 59 164 59 25 -20 c14 -11 38
-20 52 -20 15 0 252 -67 526 -150 275 -82 505 -150 511 -150 29 0 115 -59 173
-119 92 -95 231 -240 344 -359 l98 -103 202 2 c111 1 348 3 527 4 179 1 440 4
580 8 140 4 463 9 718 11 254 3 467 8 472 11 12 8 13 52 1 59 -5 3 -97 1 -204
-5 -270 -16 -258 -19 -312 94 -54 117 -136 348 -181 515 -15 54 -15 65 -3 76
28 26 122 57 197 66 42 5 120 18 172 29 130 27 379 67 530 86 69 8 172 24 230
35 93 18 134 19 365 15 143 -3 314 -10 380 -16z m-7027 -16 c-10 -2 -28 -2
-40 0 -13 2 -5 4 17 4 22 1 32 -1 23 -4z m4679 -35 c-3 -8 -6 -5 -6 6 -1 11 2
17 5 13 3 -3 4 -12 1 -19z m203 -134 c0 -7 -60 -34 -60 -27 0 5 -5 0 -11 -9
-13 -24 -29 -23 -29 1 0 28 34 48 70 43 16 -2 30 -6 30 -8z m-6496 -163 c-6
-40 -8 -41 -25 -25 -17 16 -17 17 3 45 12 16 23 27 25 25 2 -2 1 -22 -3 -45z
m4389 22 c-7 -2 -21 -2 -30 0 -10 3 -4 5 12 5 17 0 24 -2 18 -5z m-4492 -596
c-16 -16 -26 20 -10 40 13 15 14 14 17 -7 2 -12 -1 -27 -7 -33z m6926 37 c-3
-3 -12 -4 -19 -1 -8 3 -5 6 6 6 11 1 17 -2 13 -5z m-6955 -271 c-4 -46 -12
-52 -32 -28 -9 11 -8 20 10 45 12 17 23 30 24 28 2 -2 1 -22 -2 -45z m3245
-1185 c18 -22 23 -94 11 -129 l-12 -34 -12 70 c-7 39 -13 78 -13 88 -1 20 12
22 26 5z m4568 -398 c237 -55 478 -111 537 -125 58 -14 118 -25 132 -25 23 0
24 -3 19 -37 -3 -21 -7 -40 -9 -42 -2 -2 -21 8 -42 23 -56 38 -72 32 -24 -10
l42 -35 -25 -37 c-26 -38 -33 -72 -14 -72 5 0 8 4 5 9 -3 4 10 26 29 47 l34
39 1 -77 c0 -43 -2 -78 -5 -78 -3 0 -24 14 -47 30 -22 17 -47 30 -55 30 -23 0
-14 -19 18 -35 49 -26 28 -28 -58 -6 -194 50 -449 153 -627 253 -172 97 -417
267 -366 254 14 -3 219 -51 455 -106z"/>
<path d="M5271 10289 c-187 -29 -592 -144 -761 -217 -68 -29 -72 -37 -61 -127
5 -43 14 -82 20 -88 7 -7 44 -2 123 16 127 30 272 50 528 72 232 20 323 19
367 -1 30 -15 36 -15 49 -2 17 17 52 117 84 245 31 123 31 123 -114 122 -61 0
-167 -9 -235 -20z"/>
<path d="M7520 10279 c-47 -5 -121 -16 -165 -25 -44 -9 -88 -16 -98 -16 -10 1
-22 -10 -28 -25 -11 -29 -32 -205 -33 -273 -1 -41 1 -45 25 -48 15 -2 55 4 90
13 122 32 283 45 614 51 346 7 499 -1 664 -32 107 -21 122 -16 132 42 4 21 19
70 33 108 29 77 32 108 12 125 -21 17 -383 67 -576 80 -190 13 -546 12 -670 0z"/>
<path d="M4991 9739 c-274 -54 -526 -245 -639 -484 -64 -137 -83 -212 -89
-353 -7 -155 8 -226 84 -381 48 -100 65 -125 136 -196 126 -125 246 -175 416
-175 261 0 549 179 705 439 55 91 111 232 132 330 20 97 18 243 -6 335 -61
240 -255 441 -468 485 -61 13 -207 13 -271 0z m269 -113 c86 -19 153 -49 217
-97 57 -42 91 -88 57 -75 -159 63 -505 82 -755 42 l-83 -13 30 24 c16 13 35
28 42 34 24 19 137 68 192 83 70 19 216 20 300 2z m110 -231 c102 -17 139 -27
211 -57 56 -23 67 -53 76 -189 12 -181 -44 -374 -151 -524 -56 -78 -154 -174
-228 -222 -107 -69 -185 -95 -308 -101 -171 -7 -293 34 -405 140 -123 115
-174 228 -182 404 -7 134 11 225 62 333 61 127 89 158 162 181 189 58 522 73
763 35z"/>
<path d="M5272 8989 c-65 -33 -102 -103 -102 -194 0 -206 191 -293 297 -136
118 175 -25 417 -195 330z"/>
<path d="M8010 9660 c-255 -25 -459 -157 -623 -403 -120 -179 -162 -323 -161
-552 1 -132 4 -160 27 -238 84 -276 255 -470 489 -555 64 -24 87 -27 193 -26
102 0 132 5 200 27 186 61 330 187 469 410 59 94 120 244 141 341 17 87 20
293 4 382 -44 252 -188 461 -379 552 -124 58 -222 75 -360 62z m213 -156 c99
-25 176 -70 250 -145 66 -68 84 -99 50 -84 -56 24 -245 65 -348 75 -160 17
-367 3 -540 -35 -29 -6 -29 -5 15 35 61 56 162 114 251 144 89 31 226 35 322
10z m139 -298 c94 -22 175 -51 219 -81 34 -22 38 -30 45 -82 26 -184 -20 -417
-120 -607 -70 -135 -233 -279 -388 -343 -119 -50 -294 -41 -416 20 -140 69
-268 260 -318 473 -32 138 -7 357 57 496 20 42 29 50 75 67 72 27 161 50 263
66 114 19 486 13 583 -9z"/>
<path d="M8265 8788 c-72 -40 -109 -108 -109 -203 0 -78 21 -130 71 -177 81
-77 194 -52 247 54 53 106 23 255 -62 313 -40 27 -111 33 -147 13z"/>
<path d="M10104 9602 c-148 -53 -260 -209 -309 -432 -20 -94 -17 -225 5 -225
10 0 25 35 48 115 58 201 136 331 239 399 25 17 50 31 54 31 4 0 -8 -46 -27
-102 -35 -105 -41 -142 -24 -153 11 -7 35 39 85 168 l39 98 30 -7 c42 -9 77
-28 100 -53 19 -20 18 -21 -25 -76 -128 -162 -148 -190 -138 -200 7 -7 44 26
113 100 116 123 117 123 154 37 34 -80 37 -75 -78 -145 -73 -45 -105 -70 -105
-83 0 -26 22 -21 134 32 52 24 96 42 99 39 3 -3 11 -38 17 -79 l12 -74 -101
-22 c-126 -27 -126 -27 -126 -41 0 -8 34 -10 115 -7 l116 3 -3 -85 c-2 -68 -6
-85 -18 -83 -8 0 -47 7 -87 14 -66 12 -96 9 -80 -7 3 -4 43 -20 89 -38 70 -26
83 -34 80 -51 -5 -32 -32 -139 -36 -142 -2 -2 -30 12 -62 32 -57 34 -94 44
-94 26 0 -5 29 -36 65 -70 l66 -61 -22 -50 c-33 -77 -39 -77 -88 -10 -24 33
-50 60 -57 60 -21 0 -18 -10 31 -89 48 -77 48 -87 5 -126 -13 -12 -24 -15 -28
-9 -4 6 -22 34 -41 62 -18 29 -37 52 -41 52 -21 0 -18 -23 11 -86 28 -64 29
-69 13 -81 -22 -16 -51 -16 -93 -2 -26 9 -32 16 -27 33 2 11 8 42 11 69 6 39
5 47 -8 47 -10 0 -23 -20 -35 -51 l-19 -51 -39 48 c-50 62 -52 64 -97 64 -47
0 -77 -15 -77 -38 0 -33 55 -125 105 -176 107 -108 217 -137 333 -86 146 63
286 316 328 590 18 124 18 351 -1 469 -39 238 -135 414 -266 485 -69 38 -169
45 -245 18z"/>
<path d="M6195 8322 c-6 -5 -45 -14 -88 -20 -43 -7 -98 -21 -122 -32 -24 -11
-48 -20 -54 -20 -32 0 -183 -97 -263 -170 -73 -65 -178 -236 -178 -288 0 -10
-6 -24 -12 -30 -17 -17 -18 -273 -2 -293 6 -8 14 -27 18 -44 23 -93 153 -255
226 -281 19 -7 -5 -11 -90 -16 -447 -25 -455 -27 -431 -87 7 -16 19 -32 27
-35 26 -10 587 14 611 26 43 21 56 98 16 98 -17 0 -73 40 -139 98 -53 47 -115
146 -137 218 -24 82 -33 179 -19 208 6 11 18 48 27 80 9 33 30 79 45 101 35
51 165 174 206 195 16 8 31 17 34 20 12 12 119 59 160 71 25 7 50 16 55 20 6
4 58 13 117 19 106 12 276 1 303 -19 5 -4 30 -13 55 -21 59 -17 134 -63 188
-114 51 -48 102 -133 102 -169 0 -14 5 -38 12 -52 8 -18 8 -35 0 -62 -6 -21
-16 -65 -22 -97 -28 -137 -157 -302 -315 -404 -41 -26 -161 -80 -195 -87 -76
-16 -100 -58 -62 -105 l18 -23 170 12 c93 7 246 17 341 24 143 10 174 15 192
31 30 27 28 64 -5 72 -24 6 -165 0 -289 -12 -38 -3 -45 -2 -28 5 12 6 58 44
102 86 86 83 180 221 202 296 7 24 16 49 20 54 5 6 13 51 20 101 22 177 -27
323 -153 446 -68 67 -80 75 -193 131 -62 31 -156 56 -212 57 -18 0 -33 5 -33
10 0 12 -212 14 -225 2z"/>
<path d="M10112 7133 c-32 -19 -66 -43 -76 -53 -34 -33 -9 -33 39 0 25 17 53
29 61 26 8 -3 38 10 67 29 l52 35 -43 -2 c-30 -1 -62 -12 -100 -35z"/>
<path d="M10205 7102 c-71 -39 -145 -91 -145 -102 0 -5 28 10 63 34 58 41 119
76 131 76 3 0 3 -7 0 -15 -3 -8 -34 -30 -67 -50 -69 -39 -97 -59 -97 -69 0 -4
19 6 43 22 23 16 75 46 116 66 40 21 71 40 68 42 -3 3 -15 0 -27 -6 -18 -10
-21 -9 -18 6 5 27 -13 26 -67 -4z"/>
<path d="M9978 6493 c-32 -25 -55 -50 -52 -55 4 -5 18 1 33 14 14 13 37 32 50
43 24 20 24 20 13 0 -18 -32 -44 -60 -84 -90 -21 -15 -38 -32 -38 -37 0 -5 18
5 41 23 22 18 69 47 102 65 34 19 56 34 49 34 -7 0 -27 -7 -44 -16 l-31 -16
21 27 c24 31 29 55 10 55 -7 -1 -39 -22 -70 -47z"/>
<path d="M9670 4816 c-66 -52 -151 -130 -130 -120 8 4 40 29 70 54 72 62 131
102 109 74 -31 -37 -30 -49 0 -16 62 65 30 71 -49 8z"/>
<path d="M9672 4754 c-57 -37 -101 -68 -99 -71 5 -4 207 124 207 132 0 8 0 8
-108 -61z"/>
<path d="M9966 7460 c14 -68 24 -88 19 -35 -3 27 -10 54 -15 59 -7 7 -8 -1 -4
-24z"/>
<path d="M9515 6217 c2 -37 -31 -59 -38 -24 -3 17 -5 16 -6 -8 -2 -40 -21 -71
-21 -35 0 14 -5 32 -10 40 -7 11 -8 3 -4 -27 5 -34 2 -47 -15 -69 -11 -15 -21
-32 -21 -38 0 -6 9 0 20 14 11 14 20 21 20 15 1 -5 6 1 11 15 8 20 12 22 19
10 8 -12 10 -11 10 6 0 11 9 29 19 38 19 17 20 17 24 -16 l4 -33 1 38 c1 21
10 50 19 65 10 17 11 22 3 15 -19 -18 -28 -16 -33 5 -2 9 -3 4 -2 -11z"/>
<path d="M8517 5318 c-31 -23 -55 -43 -53 -46 7 -7 88 43 110 67 30 33 7 24
-57 -21z"/>
<path d="M8557 5280 c-42 -28 -82 -50 -88 -50 -6 0 -7 -5 -4 -10 8 -13 104 38
155 80 53 45 24 35 -63 -20z"/>
<path d="M5075 4760 c9 -30 84 -134 92 -126 3 3 -8 22 -25 43 -16 21 -39 54
-52 73 -17 28 -20 30 -15 10z"/>
<path d="M5120 4756 c0 -27 124 -146 152 -146 5 0 -12 18 -40 39 -27 21 -63
56 -80 77 -18 21 -32 35 -32 30z"/>
<path d="M5521 4389 c-1 -8 6 -24 15 -35 15 -19 15 -19 6 1 -5 11 -12 27 -15
35 -5 13 -6 13 -6 -1z"/>
<path d="M5805 4341 c-16 -10 -38 -27 -48 -38 -17 -19 -17 -21 -1 -27 18 -7
82 10 99 25 15 15 -27 10 -55 -6 -30 -17 -44 -19 -34 -4 3 6 26 20 50 31 24
10 44 23 44 28 0 15 -22 12 -55 -9z"/>
<path d="M2020 12524 c-34 -29 -51 -63 -85 -171 -17 -51 -20 -73 -12 -77 8 -3
6 -8 -5 -15 -20 -13 -34 -56 -43 -131 -4 -30 -13 -69 -21 -85 -21 -46 -66
-185 -75 -235 -4 -25 -15 -81 -23 -125 -10 -55 -15 -149 -15 -300 -1 -212 2
-240 39 -450 6 -33 8 -76 5 -96 -4 -25 -2 -39 9 -48 8 -7 18 -27 21 -44 6 -33
18 -64 41 -109 8 -14 14 -32 14 -40 0 -33 22 -88 35 -88 10 0 15 -10 15 -30 0
-17 5 -30 13 -30 9 0 9 -2 0 -8 -8 -5 -11 -72 -11 -230 1 -138 -3 -226 -9
-230 -5 -4 -13 -37 -16 -73 -6 -71 -38 -167 -59 -181 -10 -6 -10 -8 0 -8 8 0
11 -9 8 -22 -3 -13 -10 -67 -17 -120 -7 -54 -16 -98 -19 -98 -4 0 -10 -36 -13
-81 -3 -49 -11 -87 -20 -97 -13 -15 -19 -49 -32 -167 -4 -43 -13 -94 -20 -116
-24 -75 -21 -723 3 -738 6 -3 11 -26 13 -51 1 -25 5 -49 8 -55 3 -5 7 -25 8
-43 1 -18 9 -39 17 -48 9 -8 16 -21 16 -27 0 -7 10 -32 22 -57 40 -84 68 -160
74 -204 4 -32 22 -58 34 -51 4 3 10 -2 14 -10 3 -9 -1 -15 -10 -15 -11 0 -6
-9 15 -29 17 -16 31 -38 31 -48 0 -11 7 -28 15 -39 8 -10 15 -26 15 -35 0 -8
11 -26 25 -39 14 -13 25 -33 25 -45 0 -12 7 -30 15 -41 8 -10 15 -29 15 -41 0
-13 4 -23 9 -23 13 0 21 26 21 65 0 18 5 35 11 37 7 2 4 17 -9 42 -12 21 -24
63 -28 92 -3 30 -10 57 -15 60 -5 3 -9 16 -9 29 0 13 -11 46 -25 73 -14 28
-25 60 -25 71 0 12 -7 24 -15 27 -8 4 -12 10 -9 15 3 5 -4 24 -15 43 -12 18
-21 43 -21 54 0 20 -19 72 -30 82 -11 10 -80 236 -80 263 0 15 -4 35 -9 45 -6
9 -14 62 -20 116 -6 55 -14 102 -19 105 -5 3 -12 51 -16 106 -4 55 -11 104
-15 110 -13 16 -22 145 -11 145 6 0 10 17 10 38 0 21 5 43 12 50 8 8 8 15 -2
27 -10 12 -10 18 1 32 8 9 15 26 15 37 1 12 7 44 13 71 7 28 13 70 15 95 2 46
20 90 35 90 5 0 12 18 16 40 4 22 11 40 16 40 5 0 9 23 9 50 0 28 7 64 15 79
8 16 12 31 8 34 -3 3 4 25 15 49 24 53 65 215 66 269 1 9 7 23 15 32 11 14 11
20 1 32 -7 8 -8 15 -3 15 17 0 42 62 52 130 6 36 18 114 28 173 17 104 17 111
-1 175 -10 37 -24 95 -32 130 -8 34 -23 81 -34 104 -11 23 -20 49 -20 58 0 9
-4 20 -9 26 -6 5 -22 70 -37 144 -24 118 -28 155 -26 295 1 165 20 367 36 393
3 5 8 33 11 63 4 29 10 58 14 64 7 10 22 69 40 170 9 46 26 112 91 340 12 44
27 89 32 99 17 31 17 70 2 94 -11 17 -12 22 -2 23 16 1 -61 27 -84 28 -9 1
-30 -11 -48 -25z"/>
<path d="M2556 12278 c-8 -13 -18 -36 -21 -53 -11 -47 -37 -129 -45 -140 -8
-11 -39 -136 -70 -285 -12 -52 -33 -149 -47 -215 -23 -105 -27 -143 -27 -305
0 -171 1 -189 23 -240 66 -158 142 -422 148 -511 11 -157 -36 -419 -136 -759
-48 -164 -108 -370 -163 -560 -65 -229 -70 -307 -33 -588 22 -169 49 -287 85
-367 79 -178 119 -279 154 -390 63 -195 67 -217 68 -361 1 -158 -12 -267 -49
-404 -92 -351 -107 -499 -64 -645 16 -55 52 -97 87 -101 32 -3 94 32 94 54 0
13 16 45 36 72 6 8 17 51 24 95 6 44 41 168 76 275 96 289 107 348 108 570 1
180 0 190 -38 355 -45 199 -92 347 -139 442 -49 96 -112 248 -130 313 -43 148
-66 441 -48 595 12 105 50 246 96 365 83 211 146 387 160 447 58 250 75 378
75 574 0 204 -36 357 -135 579 -87 195 -105 275 -105 470 -1 148 -1 147 60
335 69 213 71 220 60 292 -5 36 -16 75 -25 89 -20 31 -60 32 -79 2z"/>
</g>
</svg>
